<?xml version="1.0" encoding="UTF-8"?>
<!-- Generated by Pixelmator Pro 3.7.1 -->
<svg width="960" height="960" viewBox="0 0 960 960" xmlns="http://www.w3.org/2000/svg">
    <path id="Semicircle" fill="#000000" fill-rule="evenodd" stroke="none" d="M 251.993622 138.406799 C 96.238518 294.161865 96.342575 547.173157 251.195068 703.494324 L 106.832092 847.8573 L 121.717957 862.89386 C 136.700745 853.168274 148.397766 848.436829 156.809204 848.699707 C 161.298584 848.840027 165.563232 849.916321 169.603271 851.928467 C 326.617676 976.471863 555.525146 966.178162 700.655273 821.047913 C 856.4104 665.292725 856.306396 412.281433 701.453918 255.960327 L 845.816833 111.597412 L 830.930969 96.560852 C 815.948181 106.286438 804.25116 111.017883 795.839661 110.755005 C 791.350342 110.614685 787.085693 109.538391 783.045654 107.526245 C 626.03125 -17.017151 397.12384 -6.72345 251.993622 138.406799 Z M 611.753296 732.645874 C 681.74231 662.656799 706.202087 564.379395 685.132568 474.617828 L 353.72525 806.025146 C 443.486816 827.094666 541.764343 802.634888 611.753296 732.645874 Z M 591.015869 362.500671 C 577.252319 348.737122 554.929077 348.745361 541.15509 362.519348 L 366.848663 536.825439 C 353.075104 550.598999 353.06665 572.922729 366.8302 586.686279 C 380.593658 600.449768 402.917419 600.441284 416.690826 586.667542 L 590.997192 412.361145 C 604.771057 398.587341 604.779297 376.264099 591.015869 362.500671 Z M 340.89563 226.808838 C 270.69635 297.008118 246.300232 395.666138 267.707489 485.645752 L 599.732483 153.620728 C 509.75296 132.21344 411.095001 156.609558 340.89563 226.808838 Z"/>
</svg>
